<svg xmlns="http://www.w3.org/2000/svg" width="1080" height="1080" viewBox="0 0 1080 1080" version="1.1">
	<path d="M 0 540.001 L 0 1080.002 540.250 1079.751 L 1080.500 1079.500 1080.751 539.750 L 1081.002 -0 540.501 -0 L 0 0 0 540.001 M 0.496 540.500 C 0.496 837.500, 0.610 958.851, 0.750 810.168 C 0.890 661.485, 0.890 418.485, 0.750 270.168 C 0.610 121.851, 0.496 243.500, 0.496 540.500 M 338.844 158.033 C 312.443 163.051, 291.024 174.139, 271.923 192.673 C 252.891 211.141, 241.739 231.507, 235.331 259.500 C 233.580 267.150, 233.500 279.474, 233.500 541 L 233.500 814.500 235.743 823.709 C 248.325 875.359, 286.977 912.158, 338.998 922.011 C 349.158 923.936, 353.924 924, 486.998 923.990 L 624.500 923.980 629.500 921.647 C 642.433 915.612, 648.482 899.795, 642.443 887.804 C 640.135 883.219, 634.178 877.173, 630 875.175 C 626.796 873.641, 614.722 873.455, 487 872.964 C 329.718 872.360, 344.180 873.143, 326 864.240 C 318.035 860.340, 315.027 858.126, 307.387 850.544 C 297.251 840.485, 291.827 831.855, 287.245 818.500 L 284.500 810.500 284.500 540 L 284.500 269.500 286.667 263 C 291.639 248.091, 297.249 238.843, 307.362 228.887 C 320.651 215.804, 338.021 208.447, 358.773 207.109 C 372.191 206.244, 376.378 204.644, 382.262 198.132 C 385.734 194.289, 389 186.227, 389 181.500 C 389 176.913, 385.872 169.211, 382.328 165.070 C 376.467 158.223, 370.559 156.001, 358.500 156.108 C 353 156.157, 344.155 157.023, 338.844 158.033 M 450.500 158.155 C 440.486 163.327, 435.561 171.021, 435.556 181.500 C 435.552 189.463, 437.123 193.295, 442.860 199.325 C 450.265 207.107, 437.220 206.438, 593 207.033 C 750.276 207.633, 735.779 206.848, 754 215.747 C 762.141 219.723, 764.865 221.754, 773.043 229.943 C 783.559 240.474, 788.822 249.124, 793.157 263 L 795.500 270.500 795.500 540 C 795.500 796.350, 795.412 809.793, 793.705 815.500 C 789.857 828.360, 785.166 837.081, 777.067 846.428 C 763.205 862.427, 744.395 871.377, 721.500 872.867 C 707.786 873.760, 703.647 875.328, 697.738 881.868 C 694.266 885.711, 691 893.773, 691 898.500 C 691 907.171, 698.040 917.713, 706.444 921.626 C 712.940 924.651, 724.976 924.792, 740.213 922.022 C 767.909 916.987, 789.532 905.725, 809.129 886.129 C 830.045 865.212, 841.363 842.449, 846.234 811.500 C 847.816 801.445, 847.808 276.192, 846.225 266.832 C 840.763 234.534, 826.630 208.476, 803.414 187.900 C 786.072 172.529, 765.712 162.718, 741.434 158.033 C 731.148 156.048, 727.626 156.001, 592.699 156.044 C 455.026 156.088, 454.485 156.096, 450.500 158.155 M 515.405 279.431 C 501.693 282.536, 491.398 288.573, 481.208 299.484 C 469.922 311.569, 464.089 325.688, 463.747 341.751 C 463.603 348.499, 463.968 350.415, 466.314 355.210 C 470.724 364.224, 478.548 369, 488.903 369 C 503.109 369, 511.538 361.231, 514.541 345.369 C 517.227 331.180, 520.574 329, 539.669 329 C 553.493 329, 556.977 329.711, 560.837 333.317 C 565.326 337.510, 566 340.993, 566 360 C 566 379.695, 565.300 382.887, 560.007 387.341 C 558.321 388.759, 555.492 390.135, 553.721 390.398 C 551.949 390.661, 547.243 391.357, 543.261 391.945 C 524.949 394.652, 510.351 408.037, 505.531 426.542 C 503.346 434.932, 503.540 454.091, 505.869 459.829 C 508.514 466.347, 512.352 470.536, 518.383 473.486 C 528.487 478.430, 539.359 476.737, 547.079 469.016 C 552.573 463.523, 555 457.195, 555 448.367 L 555 442.091 558.750 441.495 C 574.999 438.913, 585.612 433.522, 597.013 422.059 C 606.353 412.668, 611.558 403.842, 614.738 392 C 617.306 382.439, 617.297 337.505, 614.725 328 C 609.807 309.822, 595.835 292.333, 580.421 285.059 C 567.668 279.041, 565.926 278.730, 543 278.380 C 527.296 278.140, 519.857 278.423, 515.405 279.431 M 522.821 503.344 C 506.979 507.783, 499.668 525.432, 507.618 540.040 C 519.782 562.390, 554.868 553.787, 554.978 528.428 C 555.053 511.177, 539.146 498.769, 522.821 503.344 M 424.444 619.374 C 418.761 622.020, 412.638 628.538, 410.907 633.782 C 408.976 639.632, 410.218 650.801, 413.350 655.762 C 416.890 661.370, 422.944 665.630, 429.324 667.004 C 433.001 667.796, 465.918 668.029, 543 667.809 C 647.974 667.510, 651.627 667.437, 655.403 665.563 C 657.550 664.498, 660.805 662.128, 662.636 660.297 C 668.191 654.742, 669.470 651.418, 669.486 642.500 C 669.498 635.805, 669.092 633.774, 667 630.047 C 664.080 624.845, 657.518 619.516, 652.225 618.046 C 649.763 617.362, 611.377 617.013, 539 617.015 L 429.500 617.020 424.444 619.374 M 453.821 720.381 C 439.769 724.207, 431.508 740.027, 436.669 753.230 C 439.207 759.721, 443.493 764.568, 449.218 767.421 L 454.393 770 540 770 L 625.607 770 630.782 767.421 C 636.834 764.406, 641.112 759.411, 643.380 752.715 C 645.383 746.798, 645.412 743.750, 643.523 737.388 C 641.645 731.067, 636.618 725.178, 630.379 721.992 L 625.500 719.500 542 719.303 C 476.973 719.150, 457.465 719.389, 453.821 720.381" stroke="none" fill="black" fill-rule="evenodd"/>
</svg>